<?xml version="1.0" encoding="utf-8"?>
<!-- Generator: Adobe Illustrator 23.1.0, SVG Export Plug-In . SVG Version: 6.00 Build 0)  -->
<svg version="1.1" id="圖層_1" xmlns="http://www.w3.org/2000/svg" xmlns:xlink="http://www.w3.org/1999/xlink" x="0px" y="0px"
	 viewBox="0 0 25 25" style="enable-background:new 0 0 25 25;" xml:space="preserve">
<style type="text/css">
	.st0{fill:#5D5B6A;}
</style>
<path class="st0" d="M12.48-0.02c-6.91,0-12.52,5.6-12.52,12.52s5.6,12.52,12.52,12.52S25,19.41,25,12.5S19.4-0.02,12.48-0.02z
	 M10.4,3.21c0.48-0.52,1.13-0.77,1.95-0.77c0.86,0,1.58,0.21,2.13,0.64c0.56,0.42,0.84,0.99,0.84,1.71c0,0.63-0.24,1.16-0.72,1.57
	c-0.62,0.53-1.31,0.8-2.07,0.8c-0.81,0-1.49-0.21-2.03-0.64C9.95,6.1,9.68,5.58,9.68,4.96C9.68,4.31,9.92,3.73,10.4,3.21z
	 M17.34,20.8h-9.7v-2.42h1.25c0.7,0,1.05-0.39,1.05-1.17v-0.95v-4.36c0-0.45-0.08-0.76-0.25-0.92c-0.17-0.17-0.42-0.25-0.77-0.25
	H7.63V8.23h7.51v8.98v0.42l0.02,0.12l0.05,0.2c0.15,0.28,0.43,0.42,0.85,0.42h1.27V20.8z"/>
</svg>
