<?xml version="1.0" encoding="utf-8"?>
<!-- Generator: Adobe Illustrator 23.1.0, SVG Export Plug-In . SVG Version: 6.00 Build 0)  -->
<svg version="1.1" id="圖層_1" xmlns="http://www.w3.org/2000/svg" xmlns:xlink="http://www.w3.org/1999/xlink" x="0px" y="0px"
	 viewBox="0 0 190 77.3" style="enable-background:new 0 0 190 77.3;" xml:space="preserve">
<style type="text/css">
	.st0{fill:#FFFFFF;}
	.st1{fill-rule:evenodd;clip-rule:evenodd;fill:#FFFFFF;}
</style>
<path class="st0" d="M46.3,3.4c6,0,10.9,4.9,10.9,10.9v32.1c0,6-4.9,10.9-10.9,10.9H14.1c-6,0-10.9-4.9-10.9-10.9V14.3
	c0-6,4.9-10.9,10.9-10.9H46.3 M46.3,0.4H14.1C6.4,0.4,0.2,6.6,0.2,14.3v32.1c0,7.7,6.2,13.9,13.9,13.9h32.2
	c7.7,0,13.9-6.2,13.9-13.9V14.3C60.2,6.6,53.9,0.4,46.3,0.4L46.3,0.4z"/>
<path class="st1" d="M21,11.6c0.7,0.8,0.6,1.4,0.2,2.3s-1.9,3.5-4.4,5.7c-2.6,2.3-4.9,3.5-5.9,3.9c-1,0.4-1.6,0.3-2.2-0.5l-0.8-0.9
	c-0.7-0.8-0.7-1.8-0.2-2.3c0,0,3.9-2.5,5.6-4s4.7-5.7,4.7-5.7c0.6-0.5,1.6-0.3,2.2,0.5L21,11.6z M20.9,22.5l-0.8-0.9
	c-0.7-0.8-1.7-1-2.3-0.4c0,0-3.1,4.3-4.9,5.8c-1.7,1.4-5.7,4-5.7,4c-0.6,0.5-0.5,1.6,0.2,2.3l0.8,0.9c0.7,0.8,1.3,0.9,2.3,0.4
	c0.5-0.2,1.5-0.7,2.6-1.5V49c0,0.9,0.7,1.7,1.6,1.7H16c0.9,0,1.6-0.8,1.6-1.7V29.5c1.9-2,3.1-4,3.5-4.8
	C21.5,23.8,21.6,23.2,20.9,22.5"/>
<path class="st1" d="M51.8,25.4H36.4h-0.1h-0.1h-3.1c-0.6,0-1-0.5-1-1v-2.2c0-0.6,0.5-1,1-1h3.1c0.9,0,1.7-0.8,1.7-1.7v-1.1
	c0-0.9-0.8-1.7-1.7-1.7h-3.1c-0.6,0-1-0.5-1-1V12c0-0.9-0.8-1.7-1.7-1.7h-1.1c-0.9,0-1.7,0.8-1.7,1.7v3.7c0,0.6-0.5,1-1,1h-3.2
	c-0.9,0-1.7,0.8-1.7,1.7v1.1c0,0.9,0.8,1.7,1.7,1.7h3.2c0.6,0,1,0.5,1,1v2.2c0,0.6-0.5,1-1,1h-3.2c-0.9,0-1.7,0.8-1.7,1.7v1.1
	c0,0.9,0.8,1.7,1.7,1.7h3.2c0.6,0,1,0.5,1,1v1.9c0,0.6-0.5,1-1,1h-3.2c-0.9,0-1.7,0.8-1.7,1.7v1.1c0,0.9,0.8,1.7,1.7,1.7h3.2
	c0.6,0,1,0.5,1,1v3.8c0,0.5-0.3,0.9-0.8,1c-2.8,0.6-5.7,1.2-5.7,1.2c-0.9,0.2-1.5,1.2-1.3,2.2l0.3,1.2c0.2,1,0.8,1.3,2.2,1.3
	c1.3,0,3.2-0.2,7.5-1.3c4.2-1.1,6.9-2.9,7.9-3.6c1-0.7,1.5-1.2,1.3-2.2l-0.3-1.2c-0.2-1-1.2-1.6-2.2-1.3c0,0-1.2,0.6-2.8,1.3
	c-0.7,0.3-1.5-0.2-1.5-0.9v-1.5c0-0.6,0.5-1,1-1h3.1c0.9,0,1.7-0.8,1.7-1.7v-1.1c0-0.9-0.8-1.7-1.7-1.7h-3.1c-0.6,0-1-0.5-1-1V31
	c0-0.6,0.5-1,1-1h3.1h0.1h0.1h3.8c0.6,0,1,0.5,1,1v18c0,0.9,0.7,1.7,1.6,1.7h1.4c0.9,0,1.6-0.8,1.6-1.7V31c0-0.6,0.5-1,1-1h5
	c0.9,0,1.7-0.8,1.7-1.7v-1.1C53.5,26.2,52.8,25.4,51.8,25.4"/>
<path class="st1" d="M43.6,16.2c-1.1,0-1.9-0.9-1.9-1.9s0.9-1.9,1.9-1.9c1.1,0,1.9,0.9,1.9,1.9S44.6,16.2,43.6,16.2 M43.8,10
	c-0.1,0-0.2,0-0.2,0c-0.1,0-0.2,0-0.2,0c-2.5,0.1-4.2,2.5-3.8,5.2c0.4,2.6,3.5,8,3.5,8c0.1,0.2,0.3,0.3,0.5,0.3s0.4-0.1,0.5-0.3
	c0,0,3.1-5.4,3.5-8S46.4,10.2,43.8,10"/>
<path class="st1" d="M97.9,43.2v-23c0-1-0.6-1.6-1.6-1.6H73.4c-0.5,0-0.9,0.1-1.2,0.4c-0.3,0.3-0.4,0.7-0.4,1.2v23
	c0,1.1,0.6,1.6,1.6,1.6h22.9c0.5,0,0.9-0.1,1.2-0.4C97.7,44.1,97.9,43.7,97.9,43.2z M98.2,13.7c3.2,0,4.8,1.6,4.8,4.8v26.4
	c0,3.2-1.6,4.8-4.8,4.8H71.5c-3.2,0-4.8-1.6-4.8-4.8V18.5c0-3.2,1.6-4.8,4.8-4.8L98.2,13.7z M72.5,76.4c-0.7,0.6-1.6,0.9-3,0.9
	c-1.5,0-2.8-0.6-3.9-2c-0.3-0.3-0.5-0.7-0.5-0.9c0-0.2,0.1-0.4,0.2-0.6c0.2-0.2,0.4-0.3,0.6-0.3c0.3,0,0.5,0.1,0.8,0.4
	c0.6,0.7,1,1.1,1.2,1.3c0.5,0.4,1,0.6,1.6,0.6c0.8,0,1.3-0.2,1.6-0.5c0.3-0.3,0.5-0.9,0.5-1.7v-5.4c0-0.3,0.1-0.5,0.3-0.6
	c0.2-0.2,0.4-0.2,0.7-0.2c0.3,0,0.5,0.1,0.7,0.2c0.2,0.2,0.3,0.4,0.3,0.6v5.4C73.6,74.9,73.2,75.8,72.5,76.4z M87.6,77
	c-0.2,0.2-0.4,0.3-0.7,0.3c-0.3,0-0.6-0.1-0.8-0.4l-3.4-4.7L81,73.4v3c0,0.3-0.1,0.5-0.2,0.6c-0.2,0.2-0.4,0.2-0.6,0.2
	c-0.3,0-0.5-0.1-0.7-0.2c-0.2-0.2-0.3-0.4-0.3-0.6v-8.3c0-0.3,0.1-0.5,0.2-0.6c0.2-0.2,0.4-0.3,0.6-0.3c0.3,0,0.5,0.1,0.7,0.2
	c0.2,0.2,0.3,0.4,0.3,0.7v3l5-3.7c0.2-0.1,0.4-0.2,0.5-0.2c0.2,0,0.5,0.1,0.7,0.3c0.2,0.2,0.3,0.4,0.3,0.7c0,0.3-0.1,0.5-0.4,0.7
	l-2.9,2.2l3.4,4.8c0.1,0.2,0.2,0.3,0.2,0.5C87.9,76.7,87.8,76.9,87.6,77z M98,69.9c-0.5-0.7-1.2-1-2.2-1s-1.7,0.3-2.2,1
	c-0.5,0.6-0.7,1.4-0.7,2.4s0.2,1.7,0.7,2.4c0.5,0.7,1.3,1,2.2,1c1,0,1.7-0.3,2.2-1c0.4-0.6,0.7-1.4,0.7-2.4S98.4,70.5,98,69.9z
	 M99.3,75.9c-0.8,0.9-2,1.4-3.5,1.4s-2.7-0.5-3.5-1.4s-1.2-2.1-1.2-3.6s0.4-2.7,1.2-3.6c0.9-0.9,2-1.4,3.5-1.4
	c1.4,0,2.6,0.5,3.5,1.4c0.8,0.9,1.2,2.1,1.2,3.6S100.1,75,99.3,75.9z M111.2,69.5c-0.2-0.3-0.6-0.4-0.9-0.4H107
	c-0.3,0-0.5,0.2-0.5,0.6V72h3.9c0.4,0,0.7-0.1,0.9-0.4c0.2-0.3,0.4-0.6,0.4-1C111.5,70.2,111.4,69.8,111.2,69.5z M112.5,72.7
	c-0.6,0.6-1.3,0.9-2.2,0.9h-4v2.8c0,0.6-0.3,0.8-0.9,0.8s-0.9-0.3-0.9-0.8v-7.5c0-0.4,0.2-0.8,0.5-1.1c0.3-0.2,0.7-0.4,1.1-0.4h4.3
	c0.8,0,1.5,0.3,2.1,0.9c0.5,0.6,0.8,1.3,0.8,2.2C113.3,71.4,113.1,72.1,112.5,72.7z M120.7,69.7l-1.8,3.8h3.6L120.7,69.7z M125.6,77
	c-0.2,0.2-0.5,0.3-0.8,0.3c-0.4,0-0.6-0.2-0.8-0.6l-0.7-1.6h-5.1l-0.7,1.6c-0.2,0.4-0.5,0.6-0.8,0.6s-0.5-0.1-0.8-0.3
	c-0.2-0.2-0.3-0.4-0.3-0.7c0-0.1,0-0.3,0.1-0.5l4.1-8.1c0.2-0.4,0.5-0.6,1-0.6s0.8,0.2,1,0.6l4.1,8.1c0.1,0.2,0.1,0.3,0.1,0.5
	C125.9,76.6,125.8,76.8,125.6,77z M137.1,68.6l-3.7,4.8v2.9c0,0.3-0.1,0.5-0.3,0.7s-0.4,0.2-0.6,0.2c-0.3,0-0.5-0.1-0.7-0.2
	c-0.2-0.2-0.3-0.4-0.3-0.7v-2.9l-3.7-4.8c-0.1-0.2-0.2-0.3-0.2-0.5s0.1-0.4,0.3-0.6c0.2-0.2,0.4-0.2,0.7-0.2s0.5,0.1,0.7,0.4
	l3.1,4.3l3.1-4.3c0.2-0.2,0.4-0.4,0.7-0.4s0.5,0.1,0.7,0.2c0.2,0.2,0.3,0.4,0.3,0.6C137.3,68.3,137.2,68.5,137.1,68.6z M127.5,38.6
	c0.2-0.1,0.3-0.1,0.5-0.2c2.9-1.4,5.4-3.1,7.7-5.1c1.7-1.5,2.7-2.8,2.9-3.8c0-0.2-0.3-0.4-0.7-0.4h-21.1c0,0.1,0.1,0.2,0.1,0.2
	c0.5,0.5,0.9,0.9,1.2,1.3c2.3,2.9,5.3,5.5,8.8,7.7C127,38.3,127.2,38.5,127.5,38.6z M189.3,17.3c0.4,0.3,0.6,0.9,0.6,2
	c0,0.8-0.1,1.4-0.4,1.7c-0.4,0.5-1,0.8-1.9,0.8h-3.5v23.8c0,1.1-0.5,2-1.4,2.7c-0.8,0.6-2.1,1-3.9,1.2c-1.8,0-35.4,2.1-51.5-5.6
	c-3.4,1.4-7.4,2.9-12,4.4c-2.6,0.8-4.6,1.2-5.9,1.3c-0.7,0-1.4-0.3-1.8-0.7c-0.5-0.5-0.7-0.9-0.7-1.4c0-1,0.3-1.8,0.9-2.1
	c5.7-1.5,10.5-3,14.4-4.4c-2.5-1.8-5.2-4.2-8-7.3c-1.2-1.2-1.8-2.2-1.8-2.9c0-0.7,0.2-1.2,0.6-1.6h-2c-0.9,0-1.4-0.2-1.6-0.6
	c-0.4-0.4-0.5-0.9-0.5-1.6s0.2-1.2,0.6-1.6c0.4-0.3,0.9-0.5,1.5-0.5h13.8v-6h-15.2c-0.8,0-1.4-0.2-1.8-0.5c-0.4-0.3-0.5-0.9-0.5-1.8
	c0-0.8,0.2-1.3,0.5-1.8c0.4-0.4,1-0.5,1.8-0.5h15.2v-3.9c0-0.6,0.2-1.2,0.7-1.8c0.3-0.3,0.9-0.5,1.9-0.5c0.9,0,1.5,0.2,1.8,0.5
	c0.5,0.5,0.8,1,0.8,1.8v3.9h15.9c0.8,0,1.4,0.2,1.8,0.5c0.4,0.3,0.5,0.9,0.5,1.8c0,0.7-0.2,1.2-0.5,1.6c-0.4,0.5-1,0.7-1.9,0.7
	h-15.9v6h9.7c1.6,0.1,2.7,0.3,3.3,0.6c1,0.6,1.5,1.6,1.5,2.9c-0.1,1.4-0.9,3.1-2.4,5.1c-2,2.6-4.8,5-8.4,7.2c-0.4,0.2-0.7,0.4-1,0.6
	c5.4,2.1,13.5,3,21.4,3.4V30.2c-0.1,0.1-0.1,0.2-0.2,0.3c-0.5,0.7-1.2,1-2.1,1c-0.9,0-1.6-0.2-2.1-0.7c-0.5-0.4-0.7-1-0.7-1.7
	c0-0.5,0.2-0.9,0.6-1.5c3.4-5.5,6-11.3,7.7-17.3c0.3-0.8,0.9-1.3,1.6-1.4c0.8,0,1.5,0.2,2.1,0.5s0.9,0.9,0.9,1.8
	c-0.1,0.7-0.2,1.3-0.3,1.9c-0.6,2.2-1.4,4.6-2.5,7.2V45c10,0.2,18.6-0.3,19.4-0.3c0.5,0,0.7-0.2,0.7-0.7V22h-14.4
	c-0.7,0-1.3-0.2-1.7-0.5c-0.5-0.4-0.6-1-0.6-1.9c0-1,0.2-1.7,0.6-2c0.3-0.3,0.9-0.4,1.7-0.4h14.4v-6c0-1.3,0.9-2,2.5-2.1
	c1.6,0,2.4,0.7,2.5,2.1v6h3.5C188.4,16.8,189,17,189.3,17.3z M170.1,38.1c-0.3-0.1-0.5-0.4-0.6-0.8c-1-2.1-2.7-5.3-5.1-9.6
	c-0.2-0.4-0.4-0.7-0.4-1.2c0-0.3,0-0.5,0.2-0.9s0.6-0.7,1.1-1c0.4-0.1,0.8-0.2,1.2-0.2c0.6,0.1,1.2,0.3,1.8,0.7
	c0.9,1,2.3,3.1,3.9,6.3c0.9,2,1.4,3.6,1.4,5c0,0.6-0.2,1-0.5,1.3c-0.5,0.5-1,0.6-1.8,0.6C170.7,38.4,170.3,38.3,170.1,38.1z"/>
</svg>
