<?xml version="1.0" encoding="utf-8"?>
<!-- Generator: Adobe Illustrator 23.1.0, SVG Export Plug-In . SVG Version: 6.00 Build 0)  -->
<svg version="1.1" id="圖層_1" xmlns="http://www.w3.org/2000/svg" xmlns:xlink="http://www.w3.org/1999/xlink" x="0px" y="0px"
	 viewBox="0 0 391.8 114.2" style="enable-background:new 0 0 391.8 114.2;" xml:space="preserve">
<style type="text/css">
	.st0{fill:#FFFFFF;}
</style>
<g>
	<g>
		<path class="st0" d="M63.6,24.8H54c-1.5,0-2.6,1.2-2.6,2.6v59.3c0,1.5,1.2,2.6,2.6,2.6h9.5c1.5,0,2.6-1.2,2.6-2.6V27.4
			C66.2,26,65,24.8,63.6,24.8z"/>
		<path class="st0" d="M40.5,74.6H14.8V27.4c0-1.5-1.2-2.6-2.6-2.6H2.6C1.2,24.8,0,26,0,27.4v59.3c0,1.5,1.2,2.6,2.6,2.6h37.9
			c1.5,0,2.6-1.2,2.6-2.6v-9.5C43.2,75.8,42,74.6,40.5,74.6z"/>
		<path class="st0" d="M182.2,39.6c1.5,0,2.6-1.2,2.6-2.6v-9.5c0-1.5-1.2-2.6-2.6-2.6h-37.9c-1.5,0-2.6,1.2-2.6,2.6v59.3
			c0,1.5,1.2,2.6,2.6,2.6h37.9c1.5,0,2.6-1.2,2.6-2.6v-9.5c0-1.5-1.2-2.6-2.6-2.6h-25.7V64.5h25.7c1.5,0,2.6-1.2,2.6-2.6v-9.5
			c0-1.5-1.2-2.6-2.6-2.6h-25.7V39.6H182.2z"/>
		<path class="st0" d="M129,24.8h-9.5c-1.5,0-2.6,1.2-2.6,2.6v34.3L91.9,26c-0.7-1-1.8-1.3-2.9-1.3c-0.1,0-0.3,0-0.5,0H79
			c-1.5,0-2.6,1.2-2.6,2.6v59.3c0,1.5,1.2,2.6,2.6,2.6h9.5c1.5,0,2.6-1.2,2.6-2.6V50.9l26,37.2c0.1,0.1,0.2,0.3,0.3,0.4
			c0.4,0.5,1.1,0.9,1.8,0.9c0.2,0,0.3,0,0.5,0h9.2c1.5,0,2.6-1.2,2.6-2.6V27.4C131.6,26,130.4,24.8,129,24.8z"/>
	</g>
</g>
<g>
	<path class="st0" d="M256.9,37.7H249v13.6h7.9c3.7,0,6.4-2.9,6.4-6.8C263.3,40.7,260.6,37.7,256.9,37.7z"/>
	<ellipse class="st0" cx="299.9" cy="60.4" rx="9" ry="9.2"/>
	<path class="st0" d="M385.2,0H216.4c-3.6,0-6.6,2.9-6.6,6.6v101c0,3.6,2.9,6.6,6.6,6.6h168.8c3.6,0,6.6-3,6.6-6.7V6.6
		C391.8,3,388.9,0,385.2,0z M256.9,62.6H249v14.8c0,1-0.8,1.8-1.8,1.8h-8.5c-1,0-1.8-0.8-1.8-1.8V28.2c0-1,0.8-1.8,1.8-1.8h18.2
		c10.4,0,18.5,8.1,18.5,18.1S267.3,62.6,256.9,62.6z M320.2,78.2c0,0.5-0.4,0.9-0.9,0.9h-9.4c-0.5,0-0.9-0.4-0.9-0.9v-2.6
		c-2.5,2.9-6.2,4.6-11.2,4.6c-9.9,0-18-8.7-18-19.9s8.1-19.9,18-19.9c5.1,0,8.7,1.7,11.2,4.6v-2.6c0-0.5,0.4-0.9,0.9-0.9h9.4
		c0.5,0,0.9,0.4,0.9,0.9V78.2z M369.7,42.7l-20.1,50.6c-0.2,0.6-0.8,1-1.4,1h-9.6c-0.7,0-1.1-0.7-0.9-1.3l5.5-13.7l-15-36.5
		c-0.2-0.6,0.2-1.3,0.9-1.3h9.6c0.6,0,1.2,0.4,1.4,1l9,21.9l8.7-21.9c0.3-0.6,0.9-1,1.4-1.1h9.6C369.5,41.4,369.9,42.1,369.7,42.7z"
		/>
</g>
</svg>
