<?xml version="1.0" encoding="utf-8"?>
<!-- Generator: Adobe Illustrator 23.1.0, SVG Export Plug-In . SVG Version: 6.00 Build 0)  -->
<svg version="1.1" id="圖層_1" xmlns="http://www.w3.org/2000/svg" xmlns:xlink="http://www.w3.org/1999/xlink" x="0px" y="0px"
	 viewBox="0 0 283.5 120.6" style="enable-background:new 0 0 283.5 120.6;" xml:space="preserve">
<path d="M54.2,15.8c3.3-4.2,5.6-9.8,4.9-15.5c-4.9,0.2-10.8,3.3-14.3,7.3c-3,3.5-5.9,9.4-5.2,14.8C45.2,23,50.6,20,54.2,15.8
	 M59.1,23.7c-8-0.5-14.8,4.5-18.5,4.5c-3.8,0-9.6-4.2-15.9-4.2c-8.2,0.2-15.7,4.7-19.9,12.2c-8.4,14.8-2.3,36.6,6.1,48.5
	c4,5.9,8.9,12.4,15.2,12.2c6.1-0.2,8.4-4,15.7-4s9.4,4,15.9,3.8s10.8-5.9,14.8-12c4.7-6.8,6.6-13.4,6.6-13.6
	c-0.2-0.2-12.9-4.9-12.9-19.5C65.9,39.5,76,33.6,76.4,33.4C71,24.9,62.1,24,59.1,23.7"/>
<g>
	<path d="M128,7.1c17.3,0,29.3,12,29.3,29.1c0,17.3-12.2,29.3-29.8,29.3h-19v30.2H94.7V7.1H128z M108.5,54h15.7
		c12,0,18.8-6.6,18.8-17.6c0-11.3-6.8-17.6-18.8-17.6h-15.9V54H108.5z M160.8,77.7c0-11.3,8.7-18.3,24.1-19.2l17.8-0.9v-4.9
		c0-7.3-4.9-11.5-12.9-11.5c-7.7,0-12.4,3.8-13.6,9.4h-12.7c0.7-11.7,10.8-20.4,26.7-20.4c15.7,0,25.8,8.2,25.8,21.3V96h-12.7V85.4
		h-0.2c-3.8,7.3-12,11.7-20.4,11.7C169.7,97.1,160.8,89.2,160.8,77.7z M202.8,71.8v-5.2l-15.9,0.9c-8,0.5-12.4,4-12.4,9.6
		c0,5.6,4.7,9.4,11.7,9.4C195.5,86.6,202.8,80.2,202.8,71.8L202.8,71.8z M227.9,119.9v-10.8c0.9,0.2,3.3,0.2,4.2,0.2
		c6.1,0,9.4-2.6,11.5-9.1c0-0.2,1.2-4,1.2-4l-23.4-64.7h14.3L252,84.2h0.2l16.4-52.8h14.1l-24.1,68.2c-5.6,15.7-12,20.6-25.3,20.6
		C232.3,120.1,229.1,120.1,227.9,119.9L227.9,119.9z"/>
</g>
</svg>
