<?xml version="1.0" encoding="utf-8"?>
<!-- Generator: Adobe Illustrator 23.1.0, SVG Export Plug-In . SVG Version: 6.00 Build 0)  -->
<svg version="1.1" id="white_x5F_bg" xmlns="http://www.w3.org/2000/svg" xmlns:xlink="http://www.w3.org/1999/xlink" x="0px"
	 y="0px" viewBox="0 0 225.6 60.3" style="enable-background:new 0 0 225.6 60.3;" xml:space="preserve">
<style type="text/css">
	.st0{fill:#FFFFFF;}
	.st1{fill-rule:evenodd;clip-rule:evenodd;fill:#FFFFFF;}
	.st2{fill:#1DA7FC;}
</style>
<g>
	<path class="st0" d="M94.5,19.4c-0.5,0-5.1,0.1-5.1,0.1l1-10.6c0-0.6-0.5-1.1-1.1-1.1c-0.1,0-0.1,0-0.2,0l0,0
		c-1.6,0.4-2.8,1.6-3,3.3c0,0.1-0.7,8.4-0.7,8.4h-5.9c-0.9,0-1.9,0.6-1.9,1.9c0,0.5,0.1,1.1,0.5,1.4c0.3,0.4,0.8,0.5,1.3,0.5h5.7
		l-0.8,10c-1.8,0.6-3.6,1.2-5.5,1.8l-0.9,0.3c-0.9,0.3-1.5,1-1.6,1.8c0,0.5,0.1,1.1,0.5,1.5c0.3,0.3,0.7,0.6,1.5,0.6
		c0.6,0,1.2-0.2,5.8-1.8l-0.7,9.4c-0.2,1.7-0.9,2-2.1,2c-0.7,0-1.4-0.1-2.3-0.3l-0.6-0.1c-1.1,0-1.9,1-2,2c0,0.4,0,1,0.4,1.5
		c0.6,0.7,1.9,0.9,4.3,0.9c5,0,6.2-3.1,6.4-5.7V47c0.1-1.9,0.2-4.5,0.3-5.3c0-0.3,0.1-0.6,0.1-1.1c0.1-1,0.2-2.5,0.4-4.9
		c1.7-0.7,4.4-1.9,4.7-2.1c1-0.6,1.7-1.8,1.7-2.8c0-0.5-0.4-1-0.8-1.2c-0.3-0.1-0.8-0.2-1.4,0.1l-3.8,1.8l0.6-8.3h2.9
		c1.5,0,2.8-1,3.3-2.3c0-0.1,0.1-0.3,0.1-0.5C95.5,19.9,95.1,19.4,94.5,19.4z"/>
</g>
<g>
	<path class="st0" d="M121.3,16.4c-1.1-1.2-2.8-1.9-4.9-2c-0.8,0,0,0-4.5,0c0.7-1.4,2.6-5.1,2.6-5.2c0.2-0.5-0.1-1.4-0.8-1.5
		c-1.5-0.3-3.7,0.8-4.6,2.6c-0.5,1-1.1,2.3-1.9,4.1c-0.4,0-2.6,0-3.1,0l0,0c-3.5,0.1-6.1,2.3-6.4,5.4c-0.3,4.3-1,10.4-1.3,15.3
		c-0.3,4-0.5,8-0.7,11.8c-0.1,1.6,0.3,3,1.3,4c1.1,1.2,2.7,1.8,4.9,1.9c1.5,0.1,5.8,0,7.7,0l0,0c5.7-0.3,10.4-4.6,11.4-10.2
		c0.1-0.5,0.5-5.4,0.7-8.4c0.4-5.3,0.8-10.8,0.9-14.4C122.6,18.6,122.1,17.3,121.3,16.4z M116.7,42.6c-0.8,3.8-4.7,6.1-8.7,6.1
		c-5.6,0.1-7.3,0.1-7.8-0.5c-0.3-0.4-0.5-1-0.4-1.9c0.1-3.1,0.3-7,0.6-11.2h16.9C117.3,35,117,41.2,116.7,42.6z M118.3,20.8
		c0,0.7-0.5,7.9-0.7,10.4h-16.8c0.2-2.8,0.7-6.9,1-10.3c0.2-1.7,1.3-2.7,3.2-2.8c1.6,0,10.7,0,10.7,0
		C117.8,18.1,118.3,19.6,118.3,20.8z"/>
</g>
<g>
	<path class="st0" d="M151.1,18.7l4.8-0.5c0.7,2,1.6,3.9,2.7,5.5c-2.3,1-6.5,2-7.3,2.1c-1.1,0.2-1,0.7-0.9,1.2
		c0.4,1.2,2.5,2,4.1,1.8c1.8-0.3,4-1.2,6.3-2.3c2.4,2.5,5,4,7.4,4c5.1,0,6.4-5.6,6.4-6.5c0-0.5-0.1-1-0.5-1.3
		c-0.4-0.4-1-0.7-1.5-0.7c-0.7,0-1.5,0.5-1.8,1.5c-0.5,1.9-0.9,3.3-2.6,3.3c-1,0-2.6-0.9-4-2.1c0.7-0.5,0.7-0.4,1.6-1.2
		c2.6-2.1,3-2.9,3.1-3.4c0-0.5-0.1-1-0.5-1.3s-0.8-0.6-1.3-0.6c-0.6,0-1,0.3-1.3,0.6l0,0c-1.4,1.6-2.2,2.1-4,3.2
		c-0.8-1.2-1.5-2.5-2.1-4.3c0,0,10.1-1.2,10.3-1.2c1.2-0.2,2.1-1,2.5-2.1c0.1-0.1,0.2-0.5,0.2-0.8c0-0.6-0.5-0.9-0.9-0.9
		c-0.6,0.1-3.7,0.5-3.7,0.5c0.2-0.3,0.4-0.6,0.4-1c0-0.5-0.2-1-0.6-1.5c-1.3-1.4-4.6-2.5-5.4-2.5c-1,0-1.9,0.7-1.9,1.6
		c0,0.6,0.3,1.1,0.9,1.4l0,0c1.9,0.7,3.1,1.4,4.1,2.4l-6.7,0.8c-0.4-1.5-0.8-3.1-1.2-5C157.6,8.5,156.9,8,156,8s-1.9,0.7-2,1.7
		c0,0.5,0.5,2.8,1.1,5.1l-3.7,0.5c-1.1,0.1-1.6,1-1.7,1.7c0,0.5,0.1,0.9,0.4,1.2C150,18.4,150.4,18.7,151.1,18.7z"/>
</g>
<g>
	<path class="st0" d="M147,28.3c-0.2,0-6.3,0-6.3,0l0.3-4.6c0,0,1.9,0,2.4,0c1.1,0,2-0.9,2.4-1.9v-0.1c0.3,0.3,0.7,0.4,1.1,0.4
		c1,0,1.9-0.9,2-1.9c0-0.4-0.1-0.8-0.3-1.2l0,0c-1.4-1.8-3.7-5.6-4.9-7.6c-0.9-1.6-2.1-2.5-3.5-2.5s-2.6,1-3.5,2.3
		c-2.1,3.2-4.6,6.7-7.4,10.2c-0.4,0.5-0.7,0.9-0.7,1.4s0.1,0.9,0.4,1.2c0.4,0.4,0.9,0.6,1.5,0.6c0.7,0,1.3-0.3,1.7-0.8
		c0.2-0.2,0.5-0.5,0.8-1c0.1,0.1,0.1,0.2,0.2,0.3c0.2,0.2,0.6,0.5,1.3,0.5h2.7l-0.3,4.6h-6c-1,0-1.7,0.9-1.8,1.7
		c0,0.5,0.1,1,0.4,1.3c0.2,0.2,0.6,0.5,1.2,0.5h5.9l-1,14c-2.3,0.7-4.9,1.3-7.4,1.8c-1,0.2-1.7,0.9-1.7,1.9c0,0.5,0.1,1.1,0.5,1.5
		c0.3,0.3,0.7,0.6,1.4,0.6c1.3,0,11.5-2.6,16.9-5.2c1.4-0.7,2.4-2,2.1-3.4c0-0.2-0.1-0.4-0.2-0.4c-0.2-0.4-0.8-0.6-1.4-0.4
		c-0.5,0.2-4.3,1.7-6.4,2.5l0.9-12.7c0,0,3.9,0,4.4,0c1,0,1.9-0.6,2.4-1.4c0.2-0.3,0.5-0.8,0.5-1.3C147.9,28.6,147.5,28.3,147,28.3z
		 M135.2,20.3c1.6-2.2,3.1-4.4,4.6-6.8c0.3-0.5,0.5-0.6,0.6-0.6c0,0,0.3,0.1,0.6,0.6c2,3.6,3.2,5.7,4,6.9c-0.2,0-0.3-0.1-0.8-0.1
		C144.2,20.3,135.2,20.3,135.2,20.3z"/>
</g>
<g>
	<path class="st0" d="M147.3,33.5c-0.5-0.2-1-0.2-1.5-0.1c-1,0.2-2,0.8-2.5,1.8c-0.4,0.7-1.6,3.1-2.1,4c-0.2,0.4-0.4,0.8-0.4,1
		c0,0.4,0.1,0.8,0.4,1.2c0.3,0.3,0.8,0.5,1.3,0.5s1.1-0.3,1.5-0.7l0,0c0.7-0.7,3.2-5.5,3.7-6.4C148,34.3,147.8,33.7,147.3,33.5z"/>
</g>
<g>
	<path class="st0" d="M130.9,40.1c0,0,0.7,2.8,0.8,3.1c0.2,0.7,1,1,1.4,0.8c1.5-0.5,2.1-2.3,1.9-3.8c-0.1-0.9-1.9-5-2.3-5.6
		c-0.3-0.4-0.8-0.6-1.4-0.6c-1.1,0-1.9,0.7-2,1.6c0,0.2,0,0.5,0.2,0.8C129.8,37.2,130.4,38.6,130.9,40.1L130.9,40.1z"/>
</g>
<g>
	<path class="st0" d="M171.7,43.3c-0.9,0-1.3,0.7-1.5,1.3c-0.5,1.2-1,2.7-2,4c-0.4,0.6-1,0.6-1.4,0.6c-1.1,0-3-1-4.7-2.9
		c0.8-0.5,1.7-1.2,2.5-1.8c2.5-1.8,3.5-3.3,3.8-3.8c0.2-0.3,0.3-0.9-0.1-1.3c-0.5-0.4-2.7-0.3-3.6,0.5c-0.8,0.6-3.7,3-4.6,3.6
		c-0.7-1.2-1.3-2.6-1.9-4.1c-0.1-0.4-0.3-0.8-0.4-1.2c0,0,10.9-1.2,11.8-1.4c0.6-0.2,1.2-0.4,1.6-0.9c0.8-0.8,0.9-1.6,0.9-1.9
		c0.1-0.6-0.4-0.9-0.9-0.9l-6.6,0.8c0.2-0.3,0.6-1.7-0.3-2.7c-0.5-0.5-1.9-1.8-4.3-2c-1.5-0.1-2.8,1-2.6,1.8c0.1,0.7,1,1.2,1.3,1.4
		s1.8,1,3.1,1.8l-4.9,0.6c-0.1-0.3-0.2-0.6-0.2-0.9c-0.2-0.8-0.4-1.7-0.6-2.5c0-0.1-0.1-0.2-0.1-0.3c-0.2-0.8-0.8-1.4-1.7-1.4
		c-0.5,0-1.1,0.2-1.4,0.6c-0.3,0.3-0.5,0.6-0.5,1c0,0.1,0,0.1,0,0.2v0.1l0,0v0.1c0,0,0,0.1,0,0.2l0,0c0,0.1,0,0.1,0,0.2v0.1
		c0,0.1,0,0.1,0,0.2c0,0.1,0,0.1,0,0.2c0,0.1,0,0.2,0.1,0.3c0,0.1,0,0.2,0.1,0.2c0,0.2,0.1,0.3,0.1,0.5c0,0,0,0.1,0,0.2
		c0.1,0.5,0.2,1.1,0.4,1.7l-2,0.3c-1.5,0.2-3.2,2-2.1,3.1c0.5,0.5,1.2,0.5,1.9,0.4c0.9-0.1,3.1-0.4,3.1-0.4c0.6,2.2,2.1,5.2,2.9,6.7
		c-2.3,1.2-6.6,2.6-8,3c-0.4,0.1-0.7,0.5-0.6,1c0.1,0.9,2.3,1.9,3.7,1.8c1.5-0.2,3.1-1,6.8-2.8c2.3,2.9,5.4,4.7,8,4.7
		c0.8,0,1.6-0.2,2.3-0.5c1.1-0.5,2.3-1.4,3.3-3.4c0.8-1.7,1.2-2.8,1.3-3.7C173.8,44.2,173,43.2,171.7,43.3z"/>
</g>
<g>
	<path class="st0" d="M220.5,14.8c-1-1-2.5-1.6-4.2-1.6h-21.4c0.8-1.2,1.9-3.1,2-3.7c0-0.5-0.1-1-0.5-1.4c-0.4-0.5-1.1-0.8-1.8-0.8
		c-0.8,0-1.5,0.4-1.9,1.2c-3.2,6.2-8.1,11.9-12.7,16.1c-0.2,0.2-0.4,0.4-0.5,0.6c-0.1,0.3-0.1,0.8,0.3,1.1l0,0
		c1.3,1,3.4,1.1,4.7-0.1c0.7-0.6,7-8.1,7.9-9.3c3.5,0,23.1,0,23.1,0c0.8,0,1.4,0.2,1.7,0.6c0.4,0.4,0.5,0.9,0.5,1.7
		C217,32,215,38.3,211.3,38.3c-0.8,0-2.8-0.7-3.7-0.7s-1.9,0.7-2,2c-0.1,1,0.5,2,1.5,2.2c1.5,0.4,2.8,0.6,4,0.6
		c3.6,0,6.1-1.7,7.8-5.2c1.4-2.9,2.2-7,2.7-13.4c0.1-1.8,0.3-3.5,0.3-5.1C221.9,17.1,221.4,15.8,220.5,14.8z"/>
</g>
<g>
	<path class="st0" d="M224.4,38.5c-1.8-0.1-3.5,1.5-3.8,3.5c-0.7,4.6-2.2,6-5.2,6.3c-3.4,0.4-8,0.6-12.5,0.6c-3.3,0-6.1-0.1-9.1-0.4
		c-1.6-0.2-3.5-0.9-3.3-3.4c0.1-2.1,0.6-7.7,0.6-7.7s8.1,0.1,9.8,0c3.2-0.2,7.8-2,8.1-7c0.1-1.1,0.4-4.4-0.5-5.8
		c-0.4-0.6-1.2-2.1-4.4-2.1s-12.1,0-13.9,0c-1.4,0-2.2,0.9-2.3,2c0,0-1.2,17-1.5,20.8c-0.2,4,2.4,6.7,6.6,7.1
		c4,0.3,7.1,0.5,10.5,0.5c4.3,0,8.6-0.2,12.6-0.7c3.8-0.4,6.7-2.1,7.9-5.5c0.6-1.6,0.9-2.6,1.2-4.5l0,0c0,0,0.3-1.8,0.4-2.8
		C225.5,39.1,225,38.5,224.4,38.5z M191.9,26.2c0.4,0,10.6,0,11.8,0.1c1.7,0.2,1.4,2.5,1.4,3.3c0,1.8-1.8,4-4.7,4.1
		c-2.8,0.2-8.9,0-8.9,0L191.9,26.2z"/>
</g>
<g>
	<path class="st1" d="M46.8,0H13.6C6.1,0,0,6.1,0,13.6v33.2c0,7.5,6.1,13.5,13.6,13.5h33.2c7.5,0,13.6-6.1,13.6-13.5V13.6
		C60.3,6.1,54.3,0,46.8,0z"/>
</g>
<path class="st2" d="M45.3,27.4c0,0,0.1,0,0.2,0C45.4,27.4,45.3,27.4,45.3,27.4c-2.5,0-4.6,2-4.8,4.4l-1,14.7
	c-0.1,0.8,0.5,1.4,1.3,1.4c0,0-0.1,0-0.2,0c0.1,0,0.1,0,0.2,0c2.4,0,4.6-2,4.8-4.4l1-14.7C46.6,28,46,27.4,45.3,27.4z"/>
<circle class="st2" cx="44.8" cy="18.6" r="3.7"/>
<g>
	<path class="st2" d="M25.5,12.5h-5.2h-4.5c-0.8,0-1.4,0.6-1.5,1.4l-2.5,32.6c0,0.7,0.5,1.3,1.1,1.4c0.1,0,0.1,0,0.2,0
		c2.4,0,4.5-2,4.7-4.4l0.7-7.5v-0.1l0,0c0,0,0,0,0,0.1c0-0.8,0.7-1.4,1.5-1.4h3.8c6.1,0,11.4-4.9,11.8-11
		C36.2,17.5,31.6,12.5,25.5,12.5z M29.9,23.5c-0.2,2.9-2.7,5.2-5.5,5.2l0,0h-3.8c-0.8,0-1.3-0.6-1.3-1.4l0,0l0.5-6.7l0.1-0.8l0,0
		l0,0c0.1-0.8,0.7-1.4,1.5-1.4h3.8C27.9,18.4,30.1,20.7,29.9,23.5z"/>
	<path class="st2" d="M19.8,19.8L19.8,19.8L19.8,19.8z"/>
</g>
</svg>
