<?xml version="1.0" encoding="utf-8"?>
<!-- Generator: Adobe Illustrator 23.1.0, SVG Export Plug-In . SVG Version: 6.00 Build 0)  -->
<svg version="1.1" id="圖層_1" xmlns="http://www.w3.org/2000/svg" xmlns:xlink="http://www.w3.org/1999/xlink" x="0px" y="0px"
	 viewBox="0 0 192.9 43.8" style="enable-background:new 0 0 192.9 43.8;" xml:space="preserve">
<style type="text/css">
	.st0{fill:#FFFFFF;}
</style>
<path id="XMLID_81_" class="st0" d="M18,27.5c-0.2,0.1-0.5,0.2-0.7,0.2c-0.6,0-1.1-0.3-1.4-0.8l-0.1-0.2l-4.4-9.8
	c0-0.1-0.1-0.2-0.1-0.3c0-0.4,0.4-0.8,0.8-0.8c0.2,0,0.3,0.1,0.5,0.2l5.2,3.7c0.4,0.2,0.8,0.4,1.3,0.4c0.3,0,0.6-0.1,0.8-0.1L44.5,9
	c-4.4-5.2-11.7-8.6-19.8-8.6c-13.4,0-24.3,9-24.3,20.2c0,6.1,3.3,11.6,8.4,15.3c0.4,0.3,0.7,0.8,0.7,1.3c0,0.2,0,0.3-0.1,0.5
	c-0.4,1.5-1.1,4-1.1,4.1c-0.1,0.2-0.1,0.4-0.1,0.6c0,0.4,0.4,0.8,0.8,0.8c0.2,0,0.3-0.1,0.5-0.2l5.3-3.1c0.4-0.2,0.8-0.4,1.3-0.4
	c0.2,0,0.5,0,0.7,0.1c2.5,0.7,5.1,1.1,7.9,1.1c13.4,0,24.3-9,24.3-20.2c0-3.4-1-6.6-2.8-9.4l-28,16.3L18,27.5z"/>
<rect id="XMLID_80_" x="107.3" y="14.8" class="st0" width="18.2" height="1.6"/>
<rect id="XMLID_79_" x="107.3" y="19.9" class="st0" width="18.2" height="1.8"/>
<path id="XMLID_76_" class="st0" d="M125,34.9v-9.8h-17.3v9.8H125z M109.5,26.7h13.8v6.6h-13.8V26.7z"/>
<path id="XMLID_75_" class="st0" d="M102.3,36V13.3c1-2.2,1.9-4.6,2.7-7l-1.6-1c-1.6,5.7-4,10.8-6.9,15.1l1,1.7
	c1-1.5,2.1-3.3,3.1-5.2v19L102.3,36L102.3,36z"/>
<path id="XMLID_74_" class="st0" d="M168.4,36V13.3c1-2.2,1.9-4.6,2.7-7l-1.6-0.9c-1.6,5.7-4,10.8-6.9,15.1l1,1.7
	c1-1.5,2.1-3.3,3.1-5.2v19C166.7,36,168.4,36,168.4,36z"/>
<path id="XMLID_73_" class="st0" d="M127.4,9.5h-10.7l1.1-0.7l0,0l0,0c-0.1-0.3-0.5-1-0.8-1.8c-0.3-0.7-0.7-1.4-0.8-1.8V5.1L114.6,6
	l0,0c0.6,1.1,1.1,2.1,1.5,3.1c0.1,0.1,0.1,0.2,0.1,0.3h-10.7v1.8h21.9V9.5z"/>
<polygon id="XMLID_72_" class="st0" points="80.5,8.2 78.8,8.2 78.8,13.9 75.7,13.9 75.7,5.8 74.1,5.8 74.1,13.9 70.9,13.9 
	70.9,8.2 69.3,8.2 69.3,15.6 80.5,15.6 "/>
<rect id="XMLID_71_" x="69.8" y="18.8" class="st0" width="9.9" height="1.6"/>
<path id="XMLID_70_" class="st0" d="M71.9,26.7v-1.5h5v3.6c-0.1,1.3-0.1,1.7-0.6,2.3l0,0l1,1.7l0,0c0.9-0.7,2.4-2,4.5-3.8l0,0
	L81,27.6v-0.1l-2.5,2.1v-6.1h-8.4V26c0.2,3.4-0.6,5.8-2.5,7.2l0,0l0.9,1.6v0.1l0,0C71,33,72.1,30.2,71.9,26.7z"/>
<path id="XMLID_69_" class="st0" d="M61.2,13.5l1,1.7c2.5-2.5,4.7-5.6,6.3-8.9L67,5.4C65.4,8.7,63.4,11.4,61.2,13.5z"/>
<path id="XMLID_68_" class="st0" d="M60.8,23.8l0.9,1.6v0.1v-0.1c1-1.1,1.9-2.3,2.8-3.5v14.2h1.6v-17c0.7-1.3,1.5-2.8,2.1-4.4l0,0
	l-1.6-0.9v0.1C65.2,17.6,63.2,20.9,60.8,23.8L60.8,23.8z"/>
<path id="XMLID_65_" class="st0" d="M92.4,13v-1.6h-7.2l0,0c0.6-1.9,1.3-4.1,1.6-6h-1.7c-1.1,5-2.7,9.3-4.8,12.7l1,1.8l0.8-1.5
	c0.3-0.5,0.5-0.9,0.7-1.3c0.5,4.4,1.4,7.9,2.6,10.5c-1.2,2.1-3,4.2-5.5,6.4l0,0l0.9,1.6v0.1l0,0c2.6-2.4,4.4-4.5,5.3-6.3
	c1.1,1.9,2.9,4.2,5,6.4l0,0l1-1.7l0,0l0,0c-2.3-2.2-4.1-4.4-5.1-6.3c1.9-3.4,3-8.3,3.4-14.7h2C92.4,13.1,92.4,13,92.4,13z
	 M86.4,25.7c-1.1-2.8-1.9-6.5-2.4-11.2c0.2-0.5,0.4-1,0.6-1.5H89C88.7,18.3,87.8,22.6,86.4,25.7z"/>
<path id="XMLID_35_" class="st0" d="M160.5,11.3V9.6h-13.9V5.1h-1.8v4.4H131v1.7h13.8V17h-0.3h-8.7v1.6c0,0,1.4,3.1,4.1,6.4
	c1.1,1.3,2.4,2.8,4.1,4.1c-3.1,1.9-7.1,3.8-12.5,4.8l1,1.8c0,0,6.4-1.4,12.9-5.5c0.9,0.5,4.8,3.7,12.2,5.5l0,0l0,0l0.7-1.4
	c0,0-1.9-0.5-4.8-1.6c-2-0.8-4.5-1.9-6.9-3.6c3.6-2.7,6.8-6.4,8.7-11.3l-1.4-0.8h-7.5l0,0v-5.8h14.1V11.3z M153.4,18.6
	c0,0-1.8,5.1-7.9,9.5c-2.9-2.2-5.9-5.5-7.9-9.5H153.4z"/>
<path id="XMLID_34_" class="st0" d="M182.8,33.7c-0.4,0-0.7,0-1,0v1.8c0.7,0,1.2,0,1.5,0c1.7,0,2.7-0.4,3.4-1.1
	c0.7-0.7,1.1-1.8,1-3.3V14.7h4.7v-1.8h-4.7V5.5h-1.8V13h-14.5v1.8h14.5v16.3C186,32.9,184.9,33.7,182.8,33.7z"/>
<path id="XMLID_33_" class="st0" d="M178.9,27.9l1.7-1c-0.9-1.9-2.2-4.4-3.7-7.5l-1.6,0.9C176.4,22.4,177.6,24.9,178.9,27.9z"/>
</svg>
