<?xml version="1.0" encoding="utf-8"?>
<!-- Generator: Adobe Illustrator 23.1.0, SVG Export Plug-In . SVG Version: 6.00 Build 0)  -->
<svg version="1.1" id="圖層_1" xmlns="http://www.w3.org/2000/svg" xmlns:xlink="http://www.w3.org/1999/xlink" x="0px" y="0px"
	 viewBox="0 0 283.5 97.7" style="enable-background:new 0 0 283.5 97.7;" xml:space="preserve">
<style type="text/css">
	.st0{fill:#FFFFFF;}
</style>
<path class="st0" d="M80.6,61.4c14.1,4.7,17.3,5,17.3,5V15.7c0-8.6-7-15.6-15.7-15.6l0,0H15.7C7,0,0,7,0,15.7l0,0v66.4
	c0,8.6,7,15.7,15.7,15.6l0,0h66.5c8.6,0,15.7-7,15.7-15.6l0,0v-0.6c0,0-25.5-10.6-38.3-16.8c-8.6,10.6-19.7,17-31.3,17
	c-19.5,0-26.2-17.1-16.9-28.3c2-2.4,5.4-4.8,10.8-6.1c8.3-2,21.6,1.3,34,5.4c2.3-4.3,4.2-8.8,5.5-13.4H23.4v-3.9h19.7v-6.9H19.2
	v-3.9h23.9v-9.9c0,0,0-1.7,1.7-1.7h9.6v11.6H78v3.9H54.4v6.9h19.3C72,42.6,69.2,49.5,65.5,56C71.4,58.1,76.7,60.1,80.6,61.4
	L80.6,61.4L80.6,61.4z M23.8,53.1c-2.4,0.2-7,1.3-9.5,3.5c-7.5,6.5-3,18.5,12.2,18.5c8.8,0,17.7-5.6,24.6-14.7
	C41.2,55.6,32.8,52.2,23.8,53.1L23.8,53.1z"/>
<polygon class="st0" points="275.2,67.9 270.8,77.4 266.4,67.9 262.1,67.9 268.8,81.1 268.8,90.2 272.8,90.2 272.8,81.1 272.8,81 
	279.5,67.9 "/>
<path class="st0" d="M244.7,67.9h-3.2l-8.2,22.3h4.2l1.5-4.5h8.2l0,0l1.5,4.5h4.2L244.7,67.9z M240,82.9l3.2-9.2l3.1,9.2H240z"/>
<path class="st0" d="M216.4,67.9h-8.7v22.3h4v-8.6h4.7c4.3,0,7.3-2.8,7.3-6.9C223.7,70.8,220.7,67.9,216.4,67.9z M216.2,78.6
	L216.2,78.6h-4.4V71h4.4c2.2,0,3.5,1.9,3.5,3.8C219.7,76.6,218.5,78.6,216.2,78.6z"/>
<rect x="187.5" y="67.9" class="st0" width="4" height="22.3"/>
<polygon class="st0" points="159.3,67.9 159.3,90.2 172.8,90.2 172.8,87.2 163.3,87.2 163.3,67.9 "/>
<path class="st0" d="M146.2,90.2L138,67.9h-3.2l-8.2,22.3h4.2l1.5-4.5h8.2l1.5,4.5H146.2z M133.3,82.9l3.2-9.2l0,0l3.1,9.2H133.3z"
	/>
<path class="st0" d="M168.7,24.4h-17.2v-6.2h19.9v-3.8h-19.9V6.6h-8.9c-1,0-1.8,0.8-1.8,1.8l0,0v6H121v3.8h19.8v6.2h-16.7v3.8h33.3
	c0,0-1.8,7.2-11,14.9C138.3,37,135.6,32,135.6,32h-8.9c3.6,6.3,8.7,11.3,14.3,15.2c-5.1,3.3-11.7,6.5-20.2,9v4.6
	c0,0,13.1-2.5,25.8-10c12.7,7.4,25.5,10,25.5,10v-4.3c-8.2-3-14.6-6.2-19.7-9.4C159.7,41.7,166.1,34.3,168.7,24.4L168.7,24.4z"/>
<path class="st0" d="M224.5,7.3h-8.9v9.3h-22v3.8h22V54c-0.1,0.8-0.7,1.4-1.5,1.4h-4.5v3.9h11.6c1.9-0.1,3.3-1.6,3.3-3.5V20.5h3.6
	v-3.8h-3.6L224.5,7.3L224.5,7.3z"/>
<path class="st0" d="M205.7,26.8c-0.3-0.7-1-1.1-1.8-1.1h-7.5l5.8,18.3h8.8L205.7,26.8L205.7,26.8z"/>
<path class="st0" d="M283.5,58.7l-3.1-10.6c-0.2-0.7-0.8-1.2-1.5-1.2h-8.3l2.4,8.2h-9.8V39.3h19.2v-3.8h-19.2v-7.4h19.2v-3.8h-48
	v3.8h19.2v7.4h-19.2v3.8h19.2v15.8h-19.2v3.8h49.2L283.5,58.7L283.5,58.7L283.5,58.7L283.5,58.7z"/>
<polygon class="st0" points="183.7,6.9 173.4,31.2 181.3,31.2 181.3,60.1 189.9,60.1 189.9,21.8 186.8,21.8 193.2,6.9 "/>
<path class="st0" d="M244.3,15.4h28v5.5h10v-6.6c0-1.5-1.1-2.7-2.6-2.7l0,0h-16.2V6.4H253v5.2h-18.8v9.3h10L244.3,15.4L244.3,15.4
	L244.3,15.4z"/>
</svg>
